# xmcd CD database file generated by MAGIX_Freedb v0.9beta0
# 
# Track frame offsets:
#      150
#      16734
#      40917
#      77172
#      101624
#      120587
#      140661
#      164439
#      188659
#      216246
#      234234
#      256031
#      293954
#      318676
# 
# Disc length: 4430 seconds
# 
# Revision: 0 
# Processed by: cddbd v1.4PL0 Copyright (c) Steve Scherf et al.
# Submitted via: MAGIX_Freedb v0.9beta0
# 
DISCID=bf114c0e
DTITLE=Van Morrison - The Philosopher's stone
DYEAR=1998
DGENRE=
TTITLE0=Van Morrison - Really don't know
TTITLE1=Van Morrison - Ordinary people
TTITLE2=Van Morrison - Wonderful remark
TTITLE3=Van Morrison - Not supposed to break down
TTITLE4=Van Morrison - Lauching in the wind
TTITLE5=Van Morrison - Madame Joy
TTITLE6=Van Morrison - Contemplation rose
TTITLE7=Van Morrison - Don't worry about tomorrow
TTITLE8=Van Morrison - Try for sleep
TTITLE9=Van Morrison - Lover's prayer
TTITLE10=Van Morrison - Drumshanbo hustle
TTITLE11=Van Morrison - Twilight zone
TTITLE12=Van Morrison - Foggy mountain top
TTITLE13=Van Morrison - There there child
EXTD=
EXTT0=
EXTT1=
EXTT2=
EXTT3=
EXTT4=
EXTT5=
EXTT6=
EXTT7=
EXTT8=
EXTT9=
EXTT10=
EXTT11=
EXTT12=
EXTT13=
PLAYORDER=
